<svg width="297" height="325" viewBox="0 0 297 325" fill="none" xmlns="http://www.w3.org/2000/svg">
<path d="M92.1291 213.619C92.1291 209.225 92.2305 205.155 92.1051 201.091C91.9091 194.727 90.6651 188.6 87.2118 183.116C83.5771 177.341 78.6758 173.157 71.8945 171.604C67.0998 170.507 63.4825 172.553 61.8838 177.203C61.2798 178.957 60.7865 180.828 60.6931 182.668C60.4531 187.459 60.4198 192.263 60.4251 197.061C60.4251 197.623 61.0545 198.429 61.6025 198.708C65.6851 200.785 69.8198 202.757 73.9371 204.763C79.8865 207.66 85.8345 210.555 92.1291 213.619ZM126.428 282.335C125.774 282.06 125.32 281.895 124.886 281.681C114.428 276.539 103.981 271.375 93.5025 266.273C92.4438 265.757 92.0825 265.161 92.0918 264.008C92.1451 257.323 92.1078 250.637 92.1425 243.952C92.1478 243.024 91.9385 242.451 91.0318 242.011C81.1011 237.185 71.1905 232.316 61.2718 227.463C60.9958 227.327 60.6958 227.237 60.1038 227.009V249.704C59.3571 249.387 58.9065 249.219 58.4758 249.008C48.3145 244.015 38.1598 239.004 27.9838 234.04C26.9705 233.545 26.5425 233.008 26.5611 231.808C26.8705 212.087 27.0985 192.365 27.3998 172.644C27.5051 165.756 28.4798 159.015 31.0718 152.557C35.4011 141.771 44.9625 135.981 56.5478 137.079C64.8425 137.865 72.4625 140.695 79.6971 144.605C99.9078 155.531 113.888 171.839 121.437 193.565C124.412 202.125 125.956 210.98 126.038 220.04C126.224 240.149 126.304 260.26 126.426 280.369C126.43 280.961 126.428 281.553 126.428 282.335Z" fill="#F2F2F2"/>
<path d="M185.237 76.8493C191.682 73.3466 197.879 69.9786 204.077 66.6106C206.743 65.1613 209.39 63.6746 212.094 62.3C212.635 62.024 213.538 61.916 214.037 62.18C222.875 66.848 231.679 71.584 240.489 76.3106C240.629 76.3853 240.738 76.516 240.955 76.7013C240.566 76.96 240.238 77.212 239.877 77.408C231.401 82.016 222.931 86.636 214.423 91.1853C213.818 91.5106 212.778 91.6266 212.209 91.3266C203.503 86.7586 194.842 82.1066 186.173 77.4693C185.938 77.344 185.726 77.176 185.237 76.8493Z" fill="#F2F2F2"/>
<path d="M147.72 123.058C142.432 122.912 137.787 122.13 133.542 119.742C132.54 119.18 131.575 118.509 130.706 117.76C127.103 114.652 126.978 110.617 130.378 107.261C133.022 104.652 136.383 103.29 139.894 102.556C146.582 101.156 153.295 101.122 159.73 103.784C161.728 104.61 163.676 105.821 165.29 107.257C168.426 110.049 168.334 114.248 165.346 117.185C161.831 120.638 157.384 121.969 152.676 122.63C150.878 122.882 149.052 122.948 147.72 123.058Z" fill="#F2F2F2"/>
<path d="M128.054 46.035C137.546 44.6003 147.037 43.167 156.893 41.6776C154.178 47.0816 151.589 52.231 148.92 57.5443C141.825 53.755 134.908 50.059 127.99 46.363C128.012 46.2536 128.033 46.1443 128.054 46.035Z" fill="#F2F2F2"/>
<path d="M201.924 223.59C201.968 223.806 202.011 224.024 202.067 224.236C204.195 232.273 209.495 235.188 217.229 232.305C224.795 229.485 230.664 224.35 235.539 218.024C235.869 217.596 235.967 216.905 235.983 216.333C236.211 207.777 236.383 199.218 236.652 190.664C236.673 189.99 237.149 189.025 237.703 188.72C246.645 183.785 255.635 178.934 264.617 174.069C264.841 173.948 265.092 173.872 265.351 173.768C265.351 176.564 265.4 179.245 265.341 181.924C265.095 193.185 264.821 204.448 264.544 215.709C264.387 222.056 264.224 228.404 263.996 234.749C263.977 235.284 263.581 236.042 263.135 236.288C256.465 239.973 249.76 243.59 243.06 247.216C242.879 247.313 242.66 247.341 242.379 247.425V240.757C241.793 241.526 241.451 241.956 241.129 242.402C231.884 255.28 219.753 264.297 204.761 269.408C199.144 271.322 193.348 272.114 187.469 270.785C178.555 268.766 173.453 262.652 170.504 254.434C167.44 245.9 166.875 237.002 167.672 228.101C170.956 191.424 188.117 162.757 218.32 141.904C226.317 136.382 235.099 132.296 244.749 130.462C251.819 129.12 258.736 129.393 265.116 133.226C266.568 134.1 267.885 135.201 269.356 136.265C262.009 147.704 254.771 158.976 247.775 169.87C244.872 168.649 242.251 167.189 239.441 166.448C235.177 165.324 231.107 166.673 227.295 168.577C215.413 174.512 207.876 184.17 203.816 196.628C200.949 205.425 200.093 214.43 201.924 223.59ZM149.535 130.052C142.031 130.362 134.749 129.384 127.868 126.442C124.769 125.118 121.728 123.324 119.173 121.142C113.239 116.076 113.189 109.556 118.665 104.008C122.216 100.412 126.677 98.373 131.399 96.921C137.287 95.1116 143.344 94.3303 150.876 94.609C156.503 94.609 163.22 95.957 169.571 98.9036C173.577 100.762 177.287 103.118 179.471 107.112C181.259 110.38 181.377 113.794 179.457 117.177C176.351 122.653 171.136 125.23 165.579 127.233C160.417 129.093 155.035 129.825 149.535 130.052ZM94.9934 83.309C93.912 83.305 93.44 83.4996 93.4654 84.761C93.5587 89.3836 93.4907 94.009 93.532 98.6343C93.5534 101.09 93.5974 101.088 91.22 101.086C87.688 101.084 84.1547 101.086 80.316 101.086V83.5036H47.1307C47.1307 81.3823 47.1614 79.405 47.12 77.429C47.0907 76.0543 48.056 76.321 48.84 76.3183C55.9067 76.301 62.9747 76.2956 70.0414 76.289C73.2974 76.285 76.5534 76.2876 79.9894 76.2876V58.565C84.2347 58.565 88.3014 58.5463 92.3667 58.605C92.836 58.6116 93.2307 59.0023 93.244 59.4703C93.3467 63.1023 93.372 66.737 93.404 70.3703C93.42 72.2303 93.4067 74.0903 93.4067 76.0916H126.105V83.285C122.439 83.285 118.816 83.281 115.195 83.2863C108.46 83.297 101.728 83.3303 94.9934 83.309ZM175.755 31.4303C169.043 44.8076 162.479 57.8916 155.793 71.2156C137.943 61.685 120.203 52.2156 102.033 42.5143C126.811 38.789 151.084 35.1396 175.755 31.4303ZM212.009 52.2636C212.652 51.9236 213.769 51.8583 214.389 52.1876C229.219 60.0623 244.011 68.0063 258.808 75.9423C259.088 76.0916 259.345 76.2836 259.78 76.5623C259.197 76.9236 258.767 77.2236 258.308 77.473C243.745 85.381 229.176 93.2756 214.627 101.209C213.461 101.845 212.647 101.869 211.168 100.718C198.224 90.653 183.5 83.2223 168.051 77.7303C167.537 77.5476 167.337 77.3583 166.608 76.8836C175.568 72.0143 184.247 67.297 192.925 62.5796C199.28 59.1276 205.619 55.6476 212.009 52.2636ZM296.127 80.8396C296.128 78.4756 295.163 76.849 293.092 75.7743C290.005 74.173 286.94 72.5263 283.864 70.9036C258.527 57.5316 233.188 44.161 207.851 30.7863C188.959 20.8143 170.063 10.8477 151.183 0.852986C149.041 -0.280348 147.047 -0.288348 144.896 0.852986C132.024 7.68499 119.121 14.461 106.235 21.265C71.9174 39.3863 37.604 57.517 3.28003 75.6263C1.06003 76.797 -0.00795539 78.4343 4.46062e-05 81.0343C0.0533779 100.544 0.0346937 120.054 0.032027 139.562C0.032027 141.696 1.3467 143.606 3.33737 144.368C6.70537 145.658 10.3214 143.172 10.3214 139.564V89.1036C11.164 89.513 11.7067 89.7636 12.24 90.037C24.3147 96.249 36.388 102.466 48.464 108.676C79.4414 124.604 110.417 140.534 141.412 156.428C142.495 156.984 142.884 157.569 142.883 158.806C142.849 209.093 142.857 259.38 142.857 309.665C142.857 310.14 142.811 310.613 142.776 311.252C142.188 310.974 141.747 310.782 141.319 310.562C136.461 308.058 131.609 305.542 126.748 303.042C88.4987 283.38 50.252 263.709 11.976 244.098C10.6094 243.397 10.248 242.621 10.2534 241.185C10.2987 229.333 10.2147 217.48 10.3107 205.628C10.3267 203.584 9.13603 201.724 7.27069 200.89C3.87069 199.37 0.0347031 201.858 0.0333698 205.582L0.032027 246.568C0.032027 248.834 1.2827 250.234 3.1907 251.216C20.7694 260.246 38.3454 269.284 55.9214 278.32C85.4294 293.489 114.947 308.64 144.428 323.86C146.94 325.157 149.136 325.161 151.621 323.877C176.885 310.836 202.175 297.848 227.457 284.848C249.207 273.664 270.952 262.476 292.711 251.314C294.944 250.17 296.127 248.54 296.127 245.956C296.107 190.917 296.107 135.878 296.127 80.8396Z" fill="#F2F2F2"/>
<path d="M5.65581 162.035C2.75581 162.035 0.403809 164.085 0.403809 166.614V187.217C0.403809 189.745 2.75581 191.794 5.65581 191.794C8.55581 191.794 10.9065 189.745 10.9065 187.217V166.614C10.9065 164.085 8.55581 162.035 5.65581 162.035Z" fill="#F2F2F2"/>
</svg>
